<svg xmlns="http://www.w3.org/2000/svg" width="984.67" height="334.67"><path fill-rule="evenodd" clip-rule="evenodd" fill="#731A1E" d="M276.7 28.06L297.32.46H14.75L34.5 24.61v127.7s.01 120.56 101.66 136.34l5.6-5.62 1.11-5.67h6.51l.06 1.74h1.73l-.58 5.8 1.29 1.3 1.1.1 10.5-7.96h4.73l1.3 3.5 1.66 2.96 2.47 1.3.79 3.05.54.4C282.96 278.28 276.7 152.32 276.7 152.32V28.06z"/><path fill="#BF9B5F" d="M39.75 13.42h231.47l-10 14.77v129.67s6 117.25-102.82 117.25c-108.83 0-108.83-117.25-108.83-117.25V25.4l-9.82-12z"/><path fill-rule="evenodd" clip-rule="evenodd" fill="#731A1E" d="M65.26 227.46h183.45v7.77H65.26zM73.28 241.27H242.2v7.76H73.28z"/><path fill="#794210" d="M232.2 291.06c-.47 0-1 .17-1.45.02-.37-.1-.48-.35-.81-.5-.8-.51-1.45-1.11-2.51-1.27-.73.65-2.05 1.09-1.92 2.15.06.78 2.58 1.42 3.33 1.92.86.6.73 1.25 1.37 1.9 1.26 1.26 4.27 1.25 5.54 0 .57-.58.8-1.37.6-2.1-.54-1.74-1.95-2.1-4.15-2.12M226.09 281.43c.2-.38.37-.78.57-1.15.17-.53.04-1-.13-1.46-.66-1.63-1.81-1.7-3.9-1.8-.43.19-.86.36-1.3.54-1.4.95-1.42 2.63-.51 3.8.4.5 1.14.72 1.4 1.29.34.67-.32 3.23.92 3.26.5 0 1.1-.4 1.46-.64.4-.25.9-.46 1.16-.84.48-.69-.42-1.49-.17-2.3.17-.23.34-.5.5-.7M267.22 271.5c-.49.38-.94.75-1.25 1.22-.14.27-.32.57-.48.84-.72.93-1.6 1.8-2.51 2.65-1.2 1.13-2.76 1.95-4.06 2.85-.65.41-1.16 1-1.83 1.42a67.47 67.47 0 0 1-5.88 3.45c-.76.4-1.66.5-2.42.9l-.9-.01c.03-.25.11-.52.3-.63.98-.9 2.32-1.34 3.42-2.02 1.5-.89 2.95-1.73 4.47-2.55.31-.23.6-.45.92-.67l1.27-.59c.83-.49 1.74-1.07 2.51-1.63l.97-1c.88-.91 1.58-1.73 2.29-2.69.32-.4.68-.75.88-1.24.03-.25-1.4-.26-1.71-.25-.58 0-1.04.1-1.43.33-.5.27-.6.76-.95 1.09-.75.64-1.36 1.28-2.11 1.88-.67.51-1.4 1.03-2.12 1.57-.57.5-1.42.91-2.08 1.33-.25.24-.47.45-.71.64-.72.51-1.46.95-2.17 1.44-.34.15-.65.32-1 .49l-1.3.86c-.58.28-1.12.51-1.72.78-1.07.57-2.06 1.14-3.3 1.48-.78.22-1.59.5-2.4.7-1.6.35-5.76 1.25-6.55 2.51-.19-.02-.12.04-.14.2.62 0 1.08.23 1.75.27 1.13.02 2.06-.1 3.15-.07l4.22.15c.58-.06 1.1-.12 1.66-.2l3.14-.01c1.53-.18 3.08-.72 4.31-1.4.3-.24.59-.45.9-.66 1.24-.74 2.36-1.6 3.55-2.44l1.2-.85.74-.43c.55-.42 1.09-.9 1.7-1.3.67-.4 1.17-.92 1.8-1.39 1.53-1.13 3.52-2.32 4.19-3.95.22-.53.18-1.2.22-1.81.02-.6.09-1.07-.54-1.26"/><path fill="#794210" d="M226.47 288.74c2.12-1.25 4.05-2.86 6.53-3.47l5.65-1.13 1.98-.79c.3-.07.66-.16 1-.27 1.27-.46 2.57-1.32 3.79-2 1.22-.7 2.65-1.21 3.82-2.02l2.46-1.68c.2-.16.41-.3.56-.46.6-.3 1.22-.64 1.86-.95.15-.22.4-.4.6-.61l.8-.47c.62-.46 1.14-1.02 1.8-1.44 2.96-1.95 4.43-3.64 5.25-6.69.17-.72.5-1.76.09-2.46v-.1l-.23-.02c0 .05-.72.86-.8 1-.9 1.49-2 3.18-3.64 4.33l-1.91.97c-.5.33-1 .67-1.52 1-.59.27-1.08.56-1.63.81-.35.21-.68.43-1.03.68l-1.8.9c-1.21.78-2.27 1.67-3.46 2.46-.46.26-.9.47-1.35.74-.23.22-.5.43-.72.63-.26.16-.55.33-.82.47-1.02.73-5.27 4.13-6.3 3.93-.4-.01 0-.67.09-.8l2.85-2.8c.4-.22.8-.47 1.2-.7.43-.3.78-.61 1.25-.92.9-.67 1.83-1.34 2.78-2.03.36-.18.75-.41 1.09-.63 1.07-.71 2.05-1.43 3.14-2.04 1.52-.8 3.03-1.55 4.56-2.35l1.29-.8c.81-.44 1.69-.88 2.43-1.48.85-.68 1.28-1.45 1.88-2.22a7.16 7.16 0 0 0 1.64-2.62h-.14c0-.18-.77-.14-1.03-.14-.98.65-2 1.34-3.01 1.96-.34.17-.67.37-1.02.51-.57.43-1.12.82-1.76 1.24-1.42.77-2.92 1.65-4.4 2.5-.3.16-.61.31-.93.45-.5.36-1 .7-1.5 1.03-1.41.94-3.02 1.7-4.4 2.74-.58.47-1.1.97-1.7 1.4-.43.27-.92.45-1.33.83-.27.31-.51.62-.77.94-.84.68-1.6 1.26-2.36 1.95-1.08.94-2.05 2-3.3 2.84-.25.15-.56.32-.88.48-.37.25-.64.56-1.07.77-1.38.7-2.77 1.41-4.2 2.12-.36.13-.74.3-1.06.43-.72.44-1.4.92-2.05 1.4-.6.43-1.16.78-1.54 1.32-.22.28-.72.81-.36 1.16.27.26 1.76 1.09 2.27 1.04.58-.04.91-.64 1.36-.94M274.4 261.2c-.83.2-1.57.54-2.28.92-.7-.04-1.49-.2-2.1-.1-.83.1-1.9 1.2-2.19 1.78-.29-.02.37.43.5.5.96.38 2.11.36 3.02.72.58.24 1.01.7 1.5 1.03.87.55 2.32.74 3.43.43 2.24-.7 2.52-3.4.79-4.6a5.16 5.16 0 0 0-2.67-.67"/><path fill="#794210" d="M248.93 262.62c.46-.75 2.05-2.73.13-3.02-.61.87-1.72 1.69-2.62 2.42-1.45 1.08-2.77 2.28-4.31 3.32-.41.25-.89.46-1.3.7-.87.6-1.74 1.17-2.55 1.8l-.98.53c-.56.42-1.08.83-1.64 1.22a12.16 12.16 0 0 0-3.16 3.54c-.28.56-.57 1.16-.81 1.72-.76 1.14-.64 2.68-1.01 3.97l-.74 1.93c-.02.22 0 .51.2.68.83.57 4.6-1.9 5.04-2.52a28.8 28.8 0 0 1 4.18-4.4c.84-.76 1.32-1.64 2.35-2.36 1.32-.8 2.64-1.64 3.98-2.46.58-.42 1.36-.76 1.91-1.28.4-.39 1.57-3.58.7-3.7-.72-.11-1.12.53-1.64.77 0 .03 0 .06-.03.11h-.2c.01-.45 1.52-1.52 1.86-1.94.24-.32.44-.7.64-1.03M257.06 256.61c.69.42 1.7.35 2.35.8 1.07.78 1.55 4 3.88 3.16 3.46-1.28 0-2.95-.86-4.55-.28-.54 0-1.16-.06-1.74-.2-1.64-1.83-2.75-3.89-2.84-.66.3-1.3.49-1.95.97-1.58 1.2-1.06 3.22.53 4.2M296.28 236.97a6.78 6.78 0 0 0-3.17 2.94l-2.52 4.05a95.9 95.9 0 0 1-2.95 5.32c-.95 1.5-2.16 3.62-4.44 4.04v-.12c-.23 0-.11-.15-.05-.28.24-.67.88-1.01 1.37-1.53.5-.57.94-1.12 1.45-1.67.6-.7 1.2-1.52 1.63-2.32.18-.42.25-.87.5-1.3.5-.74.97-1.53 1.46-2.26l.44-.58c.23-.46.27-.99.57-1.4.88-1.4 2.02-2.7 3.27-3.97.32-.33.7-1.08.22-1.42v.09c-.71-.05-5.37 2.63-5.75 3.2-.35.46-.46 1.03-.63 1.57-.16.31-.38.64-.56.94-.1.3-.21.57-.28.87-.32.46-.55.9-.84 1.35-.34.68-.67 1.38-.96 2.07-.44.9-1.16 1.71-1.77 2.57-.66 1-1.2 2.01-2.18 2.93l-5.02 3.77-.75 1c-.25.25-.43.69 0 .9.5.3 3.1-.52 3.77-.65 2.01-.35 4.99-1.12 6.71-2.16.58-.36.99-.83 1.45-1.3l1.41-1.37c.61-.87 1.09-1.8 1.61-2.73.54-.8 1.06-1.64 1.58-2.45.73-1.22 1.45-2.46 2.2-3.7.5-.65.69-1.52 1-2.24l1.07-2.22c.22-.44.71-.79.82-1.3.03-.4-.06-.62-.36-.86-.03.18-.16.13-.3.22M268.48 243.43c.83-1.22 1.72-2.45 2.35-3.76.79-1.65 1.26-3.44 2.13-5.06.61-1.09 1.72-1.97 2.27-3.17h-.14c0-.23-.65-.04-.84.04-1.89.88-3.72 2.63-4.72 4.14-.5.7-.97 1.42-1.41 2.16-.22.34-.42.73-.62 1.12l-1.53 2.25c-.32.7-.6 1.38-.88 2.08-.21.29-.37.57-.52.86-.1.36-.17.73-.25 1.08-.11.43-.29.75-.36 1.24 0 .44.17.8.22 1.17l.12 1.23c.33.77.75 1.5.98 2.32.2.72 1.3 3.07 2.05 3.46l.65-.79c.16-.37.33-.73.44-1.12a30.1 30.1 0 0 1 1.61-4.38c.12-.32.22-.68.4-1 .41-.78.89-1.55 1.27-2.34.41-.67.62-1.37 1.06-2 .55-.67 1.03-1.32 1.53-2 .52-.85 1.03-1.74 1.6-2.6.28-.47.6-.94.93-1.42.76-1.55 2.41-2.86 1.92-4.72-.12-.57-.55-.9-1.27-.99-.75.8-1.45 1.6-2.15 2.38-.74 1.13-1.27 2.28-1.88 3.5l-.62 1.04c-.23.47-.28.98-.5 1.48-.24.66-.7 1.2-.97 1.87-.15.39-.3.77-.48 1.16-.24.34-.52.71-.76 1.07-.57.78-1.01 1.57-1.72 2.31-.41.4-.82.77-1.23 1.12h-.49v-.12c-.23 0-.08-.27-.03-.39.36-1.2 1.15-2.2 1.84-3.22"/><path fill="#794210" d="M271.56 258.07c.56-.58 1.15-1.04 1.67-1.63.4-.41.62-.84 1.12-1.21l2.23-1.65c.37-.17.7-.37 1.07-.55 1.08-.7 2.03-1.5 2.9-2.35.31-.47.63-.94.97-1.42.9-1.06 1.45-2.23 2.07-3.46.64-1.03 1.22-2.09 1.85-3.11l.8-2c.34-.7.73-1.38 1.11-2.07.05-.26.15-.6.2-.87.21-.38.37-.76.56-1.14.25-1.01.3-2.02.55-3.07.26-1.03.88-2.6.48-3.75a1.36 1.36 0 0 0-.78-.58c-3.21 1.88-3.76 5.34-4.94 8.21-.2.26-.35.5-.53.77-.35.76-.7 1.54-1.03 2.31-.63 1.45-1.2 2.95-1.97 4.33-.36.52-.68 1.02-1.04 1.51-.97 1.7-2.78 5.48-4.86 6.4-.16.04-.34.1-.57.15-.4-.01-.46-.4-.36-.64.39-1.57 1.3-2.85 2.15-4.22.26-.42.69-.8.97-1.22.23-.42.47-.83.68-1.24.62-.98 1.4-1.91 1.96-2.88.3-.7.6-1.39.87-2.06 1-1.92 1.91-3.88 2.94-5.76.57-1.12 1.36-2.08 1.85-3.26l.01-.3c-1.06-.04-3.3 2.36-3.95 3l-.8.66c-.4.44-.63 1.02-1.05 1.46-1.33 1.56-2.02 3.43-3.08 5.1-.29.37-.54.76-.83 1.12-.27.61-.6 1.19-.86 1.78-.59.9-1.33 1.7-1.8 2.64-.28.6-.53 1.23-.77 1.8-.16.32-.36.56-.5.84-.8 2.15-1.66 4.28-2.03 6.6-.08.51-.36.74-.58 1.15a14.4 14.4 0 0 1-2.21 2.95c-.38.32-.78.65-1.16.94-.32.4-1.06 2.2-.21 2.45 1.86.6 5.99-4.76 6.9-5.73M299.5 223.56c-.54-.23-1.34-.21-2.06-.25-.5.36-1.02.58-1.47.95-.5.35-.83 1-1.5 1.19-.48.13-1.05.03-1.58.06-.42 0-2.02.25-2.22.5-.3.39.13 1.85.32 2.27 0 .25.73.2.98.24.98 0 1.69-.41 2.65-.46 1.8-.06 3.43 1.32 5.17.42 2-1.02 2.47-2.68.86-4.15-.34-.32-.7-.6-1.14-.77M277 220.04c-1.52 1.17-1.01 3.33.84 4.12 1.2.54 2.53.03 3.68.39.87.28 1.82 1.43 2.7 1.47.1-.01.15-.04.26-.04.78-.35.63-2.7.15-3.2-.5-.31-1.04-.66-1.57-.96-.38-.36-.38-.77-.6-1.15-.53-.85-2.03-1.53-3.18-1.61-.74.3-1.63.48-2.28.98M305.05 201.9c-.49-.62-.95-1.23-1.85-1.43-.14.69.23 1.12.4 1.68.09.62.14 1.24.23 1.83a18.3 18.3 0 0 1-.63 4.5c-.13.3-.35.63-.48.96-.1.34-.15.65-.22.99-.12.26-.24.55-.32.8-.43 1.58-.55 3.33-1.53 4.7v.2h-.34v-.14c-.22 0-.06-1.53 0-1.74.08-.7.45-1.2.64-1.85.2-.73.4-1.46.58-2.2.22-.66.68-1.3.96-1.95.62-1.72 1.12-4.15.5-5.97-.14-.42-.34-1.11-1-1.13-2.1-.25-1.75 4.81-1.9 6.19-.02.54-.2 1.03-.32 1.54a16.45 16.45 0 0 1-1.4 4.97c-.19.2-.31.4-.48.6-.29.47-.52.9-.79 1.36l-1.53 1.91c-1 1.34-4.16 3.96-3.4 5.75l-.01.22c.6.02 3.66-2.39 4.26-2.85.36-.21.7-.44 1.09-.63.47-.33.95-.65 1.46-.98.42-.23.88-.5 1.34-.73.4-.28.72-.66 1.18-.98.46-.31 1.01-.56 1.36-.91.22-.33.37-.63.58-.94.26-.27.46-.51.75-.77.46-.66.72-1.5.98-2.22.31-.8.13-1.8.31-2.63.13-.42.37-.67.4-1.15l.2-1.7c.1-.32.21-.62.35-.97a5.25 5.25 0 0 0-1.37-4.32M282.87 203.96c.72-1.84 1-3.3-.36-4.9a4 4 0 0 0-1.33-1.17c-.35.63-.32 1.38-.42 2.13-.16.41-.27.82-.42 1.22l-.14 2.04c-.25 4.17-.79 7.92 1.59 11.07.4.53.82 1.14 1.26 1.6.29.27.63.52.95.76.53.62 1.3 1.87 2.44 1.8.33-.01.52-.15.6-.39.29-.86.4-2.84.2-3.69-.2-.77-.65-1.67-.7-2.51-.06-1.02-.2-2.05-.06-3.09.2-1.2.5-2.45.3-3.65-.1-.63-.43-1.11-.63-1.66-.15-.45-.27-.88-.62-1.26-.21-.22-.68-.43-1.01-.22-.12 0 .16.88.16 1.14 0 1.77-.9 3.02-.9 4.8 0 .7.3 1.24.45 1.9l.26 1.53c.11.4.4.68.42 1.16-.05.22-.08.43-.1.66-.08.05-.13.1-.14.14v.12c-1.25-.07-2.43-5.69-2.31-6.8.05-.5.23-.88.29-1.34.08-.47.17-.94.22-1.4"/><path fill="#794210" d="M290.57 221.46c1.5-2.55 4.05-4.6 5.55-7.19.22-.6.47-1.2.71-1.8.19-.31.38-.63.59-.93.2-.56.28-1.13.4-1.72.16-.35.3-.71.41-1.03.07-1.02.14-2.05.24-3.06.17-.56.3-1.16.5-1.76l.01-1.6c-.1-.25-.13-.51-.23-.78.02-.42.02-.8.02-1.22-.08-.81-.81-1.53-1.43-2.15-.28-.29-.75-.86-1.17-1-.2-.05-.42-.03-.48.15-.15.54.26 1.26.34 1.77.2.83 0 1.8-.1 2.68-.1.36-.18.7-.39 1.01l-.88 2.08c-.47.9-1.01 1.65-1.28 2.67-.54 1.94.63 6.17-.83 7.32-.11.05-.17.1-.25.15-.3 0-.68-.13-.82-.32-.23-.28-.21-.61-.23-.95-.21-1.15-.23-2.37-.09-3.62.04-.51.25-.82.38-1.26.07-.47.18-.97.29-1.48.14-.31.3-.64.47-.95.25-.58.26-1.27.56-1.83.34-.53.63-1.07.93-1.6.17-.48.32-.92.5-1.39.15-.33.47-.58.52-.94.33-1.24.05-3.41-1.42-3.76-.27.3-.53.62-.8.94-.7.63-1.44 1.2-1.83 1.97-.38.93-.8 1.88-1.18 2.82-.13.78-.08 1.47-.27 2.25-.11.34-.23.74-.39 1.11-.04.85-.04 1.73-.07 2.59-.15.47-.27.9-.44 1.4l-.2 2.9c-.14 1.94.25 3.69-.17 5.64-.12.72-.54 1.27-.8 1.95-.33.98-.56 1.91-.9 2.89-.19.4-.3.78-.48 1.15-.14.8-.2 3.41.73 3.65.45.1.94-.08 1.28-.24 1.8-1.08.92-1.89 1.4-3.46.3-1.05.73-2.1 1.3-3.05M306.36 186.28c-.55-.17-1.36-.09-2.08-.07-.47.4-.97.68-1.39 1.08-.46.4-.75 1.08-1.4 1.32-.47.17-1.05.12-1.57.2-.41.03-2 .41-2.18.69-.27.41.26 1.84.48 2.23.02.26.75.16 1.01.16.98-.08 1.66-.57 2.6-.68 1.79-.23 3.53 1.01 5.19-.04 1.92-1.2 2.26-2.88.55-4.21-.37-.3-.74-.54-1.21-.68M283.67 184.73c-1.43 1.3-.76 3.4 1.16 4.04 1.22.42 2.52-.2 3.68.06.89.2 1.92 1.27 2.8 1.24.1-.02.16-.06.25-.08.75-.4.44-2.7-.08-3.19-.53-.27-1.08-.57-1.63-.83-.42-.3-.43-.73-.69-1.08-.6-.8-2.14-1.35-3.3-1.34-.71.36-1.58.62-2.2 1.18M310.25 164.23c-.53-.6-1.03-1.14-1.95-1.28-.08.7.32 1.1.53 1.65.13.6.23 1.22.36 1.8.05 1.5.04 3.13-.28 4.54-.11.32-.3.66-.4 1-.08.35-.1.65-.14 1a3.3 3.3 0 0 0-.27.83c-.32 1.61-.3 3.36-1.16 4.82v.2l-.34.02v-.14c-.23.02-.18-1.52-.14-1.72.03-.72.37-1.25.5-1.91.15-.74.28-1.49.4-2.24.18-.67.59-1.35.81-2.03.5-1.77.8-4.23.07-6-.18-.4-.42-1.07-1.1-1.04-2.1-.06-1.38 4.96-1.42 6.34.02.54-.13 1.05-.2 1.56a16.3 16.3 0 0 1-1.03 5.07c-.18.23-.26.43-.42.65-.26.49-.46.95-.7 1.43l-1.36 2.03c-.9 1.41-3.85 4.3-2.95 6.04v.21c.6-.05 3.46-2.7 4.02-3.21.34-.25.66-.5 1.04-.72a21.63 21.63 0 0 1 2.67-1.95c.38-.32.65-.73 1.1-1.09.43-.35.96-.63 1.3-1.02.17-.35.31-.66.5-1 .22-.27.41-.53.67-.82.42-.7.62-1.56.83-2.3.24-.82-.01-1.81.1-2.66.1-.42.32-.7.3-1.17.04-.56.07-1.14.08-1.72.09-.32.17-.64.28-.97a5.15 5.15 0 0 0-1.7-4.2M288.3 168.2c.6-1.9.75-3.38-.72-4.85a4.04 4.04 0 0 0-1.42-1.06c-.3.66-.22 1.42-.27 2.15-.11.44-.2.86-.32 1.26l.02 2.06c.05 4.17-.2 7.95 2.4 10.88.46.5.92 1.06 1.4 1.47.3.26.67.5 1 .7.58.56 1.43 1.75 2.57 1.58.34-.04.5-.2.57-.44a9.1 9.1 0 0 0-.1-3.69c-.25-.76-.75-1.62-.86-2.47-.13-.98-.36-2-.29-3.05.09-1.22.3-2.49 0-3.68-.14-.62-.5-1.06-.75-1.59-.18-.42-.33-.85-.7-1.2-.24-.22-.72-.37-1.04-.16-.1.01.25.9.27 1.14.13 1.78-.68 3.1-.54 4.88.05.69.39 1.2.58 1.84l.38 1.5c.13.4.44.65.5 1.13l-.06.66-.11.15.01.14c-1.26.03-2.86-5.47-2.82-6.59.01-.5.16-.9.18-1.36.06-.47.1-.95.12-1.4"/><path fill="#794210" d="M297.3 184.98c1.3-2.67 3.7-4.95 5-7.65.16-.63.37-1.24.55-1.84.16-.35.35-.68.53-1 .17-.57.2-1.16.27-1.75.12-.35.24-.72.33-1.07v-3.06c.13-.58.22-1.19.36-1.79-.03-.54-.08-1.08-.1-1.62-.12-.22-.17-.49-.28-.75a27.7 27.7 0 0 0-.08-1.2c-.14-.8-.93-1.47-1.58-2.02-.31-.26-.81-.8-1.25-.9-.2-.04-.43.01-.47.2-.1.55.35 1.23.48 1.73.26.8.13 1.79.1 2.67-.06.37-.13.73-.3 1.04-.26.73-.51 1.43-.74 2.15-.4.94-.87 1.74-1.06 2.78-.4 1.97 1.09 6.1-.29 7.37-.1.05-.15.1-.23.17-.3.01-.69-.08-.85-.25-.25-.26-.25-.59-.3-.94-.3-1.11-.4-2.33-.36-3.6 0-.5.2-.85.3-1.28.01-.48.1-.99.16-1.5.12-.33.25-.67.4-.99.2-.6.16-1.27.41-1.87.32-.55.56-1.12.81-1.67l.4-1.43c.12-.35.42-.63.45-.99.24-1.26-.2-3.4-1.68-3.63l-.74 1.01c-.67.7-1.36 1.33-1.67 2.12-.33.97-.66 1.95-.97 2.92-.08.78.04 1.47-.12 2.27-.07.35-.16.75-.28 1.14 0 .85.08 1.72.11 2.58-.1.47-.2.93-.33 1.44.02.98.03 1.92.03 2.9 0 1.95.51 3.66.25 5.66-.06.7-.43 1.3-.64 1.98-.26 1.02-.43 1.98-.69 2.98-.15.42-.24.8-.39 1.17-.1.83.04 3.43 1 3.59.46.07.92-.16 1.26-.36 1.71-1.22.78-1.97 1.13-3.56.24-1.07.57-2.16 1.07-3.15M190.84 306.49c1.06.45 2.2.64 3.44.84.42.1.82.18 1.23.3.8.01 1.59.04 2.35.07.42-.06.79-.1 1.2-.19.9-.05 1.7-.03 2.62-.17.78-.24 1.62-.45 2.44-.64.92-.24 1.86-.4 2.76-.67.58-.12 1.1-.26 1.67-.36 1.44-.45 2.82-.93 4.27-1.38l1.63-.37c1-.34 2.02-.77 3-1.16l1.98-.64c.5-.27 1-.5 1.5-.75.72-.26 1.48-.53 2.2-.77.52-.23 1.1-.5 1.6-.69a1.85 1.85 0 0 0-.09-.42c-.56-.02-1.12-.19-1.76-.19-.89 0-1.7.05-2.62 0v-.1l.15.02c.01-.3.36-.4.18-.73-.25-.67-3.51-.86-4.48-.9-1.33.34-2.67.56-3.95.95-1.36.38-2.66.96-4 1.37a174.5 174.5 0 0 1-8.44 2.43c-1 .26-2.15.59-3.16.77-.9.12-2 .07-2.76.44a4.7 4.7 0 0 0-2.3.43c-.2 0-.4 0-.6-.02l-.54 2.33.48.2M186.63 301.24l4.56 1.44-.1.46c.23 0 .47-.01.68-.04.54-.11 1.04-.23 1.56-.37.73-.1 1.38-.22 2.1-.32.33-.14.66-.25.93-.34 2.78-.6 5.3-1.36 7.94-2.12.35-.1.67-.26 1.07-.38.46-.1.96-.19 1.4-.26.47-.17.94-.31 1.4-.45.77-.2 1.55-.37 2.37-.56.88-.28 1.75-.67 2.58-1.03.99-.44 2.12-.78 3.08-1.22.79-.4 1.53-.8 2.3-1.21.17-.15.32-.31.53-.48.95-.66 1.98-1.29 2.9-2.05.67-.6 1.05-.5 1.25-1.44-.22-.03-.49-.1-.74-.16l-2.1.13c-.7.13-1.23.5-1.98.6-1.87.27-3.49.87-5.18 1.42-1.87.63-3.74 1.12-5.5 1.97-1.14.54-2.23 1.13-3.44 1.59-1.77.65-3.54 1.33-5.39 1.86-.76.2-1.51.44-2.23.65a8.4 8.4 0 0 0-3.23.49c-.43-.01-.98-.01-1.36.15-.85-.04-4.66.06-4.54-.69.18-1.06 3.28-1.13 4.28-1.26.58-.1 1.19-.24 1.78-.33.6-.04 1.2-.08 1.76-.1l1.3-.24c1.45-.23 2.82-.8 4.2-1.24 3.59-1.25 6.87-2.94 10.6-4.05.52-.07 1.02-.17 1.54-.25.71-.2 1.34-.4 2.04-.62.8-.06 1.58-.12 2.43-.2.4-.13.81-.26 1.22-.34l1.3-.08c.4-.13.73-.3 1.07-.4 0-.13.04-.22.04-.33-.47-.02-.83-.3-1.38-.33-1.72-.07-3.4-.18-5.13-.26-.43.22-1.02.35-1.57.37-.47.05-.94-.02-1.35.15a16.8 16.8 0 0 0-4.92.8c-.8-.04-1.36.27-2.05.43-1 .25-2.11.43-3.08.81l-3.56 1.06-1.38.3c-1.92.68-3.8 1.31-5.69 1.94-.54.12-1.1.22-1.58.35-1.38.42-2.76.91-4.15 1.28l-.75.17 1.58 1.16.59 3.57z"/><path fill="#794210" d="M184.48 295.88c.96-.05 1.75-.44 2.64-.67a54.94 54.94 0 0 0 5.8-1.86l1.47-.65c2.5-.92 5.12-1.7 7.7-2.33.5-.07 1.08-.18 1.57-.24.69-.17 1.3-.49 1.99-.64l5.17-.85c1.05-.16 2.13-.03 2.84-.78.24-.35.29-.9.4-1.28.04-.52-1-.7-1.46-.57l-.9.05c-1.34-.05-2.17.18-3.3.42-1.33.29-2.6.6-3.9.98a19.43 19.43 0 0 1-3.05 1.3c-1.22.35-2.5.7-3.78 1.02-1.13-.05-2.18.42-3.2.66-.83.2-1.87.3-2.64.66h-.26c.03-.4.65-.7.98-.85.86-.47 1.83-.93 2.8-1.18l1.12-.1c.76-.14 1.44-.4 2.18-.54.65-.1 1.27-.24 1.9-.36.68-.26 1.47-.42 2.14-.7 1.55-.6 3.03-1.35 4.7-1.71 1.88-.43 3.93-.37 5.79-.77v-.13c.16 0 .14.06.14-.07-.26-.02-.68-.54-1.1-.62-1.57-.32-3.33-.4-5.09-.46-.43.14-.98.14-1.4.27-1.34.32-2.61.8-3.88 1.18-.54.16-1.15.24-1.63.52-.97-.05-1.76.33-2.56.55l-1.1.19c-.47.2-.97.37-1.46.56-.4.14-.83.24-1.25.4-1.78.78-3.27 1.8-4.89 2.84-.4.2-.79.41-1.2.65-.96.64-1.46 1.21-2.55 1.75-.87.38-1.77.73-2.6 1.12-.5.12-1.08.2-1.63.32l2.6 1.9a9 9 0 0 0 .9.02M6.03 185.16c.57-.1 1.36.07 2.07.18.43.47.9.8 1.28 1.24.41.45.64 1.16 1.25 1.47.45.23 1.03.26 1.54.38.42.1 1.93.67 2.1.96.22.44-.46 1.8-.72 2.17-.04.24-.76.05-1 .03-.99-.2-1.6-.76-2.53-1-1.75-.44-3.6.59-5.15-.64-1.78-1.42-1.94-3.15-.1-4.25.39-.25.78-.46 1.26-.54M28.74 186.34c1.29 1.45.42 3.47-1.56 3.87-1.26.27-2.48-.5-3.67-.38-.9.1-2.04 1.03-2.92.9-.1-.05-.13-.08-.24-.1-.7-.5-.14-2.76.43-3.18l1.7-.63c.44-.26.51-.67.8-1 .68-.72 2.26-1.07 3.42-.93.66.44 1.5.8 2.04 1.45M4.46 162.78c.6-.51 1.15-1.01 2.07-1.04.02.7-.42 1.06-.7 1.58-.18.6-.35 1.19-.54 1.75-.2 1.5-.37 3.1-.19 4.55.08.32.24.68.31 1.02.02.37.02.67.02 1.03.1.28.15.59.18.85.15 1.64-.06 3.37.65 4.92l-.02.2.33.07.03-.14c.2.04.33-1.48.3-1.7.06-.7-.22-1.27-.29-1.96-.08-.75-.13-1.5-.17-2.26-.1-.7-.43-1.42-.6-2.13-.3-1.8-.35-4.29.57-5.96.21-.37.52-1.02 1.19-.9 2.1.19.87 5.1.76 6.47-.08.52.01 1.06.04 1.57-.03 1.76-.03 3.52.48 5.17.15.25.23.46.36.69.2.52.35 1 .54 1.5.4.73.75 1.45 1.15 2.18.75 1.52 3.38 4.75 2.32 6.35l-.04.23c-.58-.12-3.17-3.11-3.67-3.69-.3-.28-.6-.57-.94-.84l-1.27-1.26-1.19-1c-.34-.34-.57-.8-.97-1.2-.4-.4-.9-.75-1.18-1.17-.16-.37-.26-.7-.4-1.04-.2-.31-.36-.6-.6-.91-.33-.75-.45-1.63-.56-2.38-.16-.85.2-1.8.16-2.66-.06-.43-.24-.72-.19-1.2l.12-1.72a17 17 0 0 0-.17-1 5.12 5.12 0 0 1 2.1-3.97M25.87 169.34c-.38-1.95-.4-3.44 1.22-4.73.47-.39.92-.72 1.52-.88.24.69.07 1.43.03 2.18.08.45.13.87.2 1.29-.09.67-.16 1.4-.23 2.03-.5 4.15-.64 7.93-3.53 10.54-.5.44-1.02.95-1.53 1.3-.34.21-.72.39-1.07.56-.64.48-1.6 1.57-2.72 1.27-.32-.08-.47-.26-.52-.51-.13-.9.12-2.88.47-3.66.33-.72.93-1.5 1.13-2.34.24-.97.56-1.94.6-3 .04-1.22-.04-2.51.38-3.66.21-.58.62-.99.91-1.49.23-.4.42-.8.82-1.1.27-.2.77-.3 1.05-.03.12.02-.33.85-.37 1.09-.33 1.75.34 3.16.02 4.91-.12.68-.51 1.15-.77 1.76-.16.47-.37.98-.55 1.45-.16.38-.5.59-.6 1.05l-.01.67c.04.08.09.13.1.17l-.03.12c1.25.19 3.4-5.08 3.5-6.2.03-.48-.08-.92-.06-1.37 0-.48 0-.96.04-1.42"/><path fill="#794210" d="M15.17 184.96c-1-2.82-3.15-5.37-4.17-8.21-.08-.65-.23-1.28-.36-1.9-.13-.36-.26-.7-.41-1.05-.1-.59-.1-1.17-.1-1.77-.08-.37-.16-.75-.2-1.1.11-1.01.23-2.04.32-3.04-.07-.6-.1-1.21-.18-1.83.1-.54.2-1.06.27-1.58.15-.22.23-.48.36-.72l.2-1.2c.22-.78 1.08-1.34 1.78-1.81.34-.22.9-.7 1.33-.75.22 0 .43.07.45.26.05.56-.47 1.18-.65 1.66-.35.77-.33 1.77-.38 2.65.02.36.05.73.2 1.07.17.75.35 1.48.5 2.22.3.98.7 1.82.77 2.88.2 2.01-1.72 5.92-.5 7.36.12.07.16.13.23.2.28.05.68 0 .86-.16.28-.21.3-.54.4-.89.4-1.06.64-2.27.73-3.53.05-.5-.1-.86-.15-1.3.02-.49 0-1-.01-1.51a9.2 9.2 0 0 0-.3-1.03c-.13-.62-.02-1.3-.22-1.92-.24-.58-.43-1.17-.63-1.75-.07-.52-.14-.98-.23-1.47-.1-.35-.35-.67-.35-1.03-.1-1.28.56-3.36 2.05-3.4.22.36.44.71.63 1.08.59.76 1.2 1.48 1.45 2.32l.65 3.01c0 .78-.2 1.45-.13 2.25.04.37.09.78.17 1.17-.1.85-.26 1.7-.39 2.56.07.5.1.96.19 1.48-.12.96-.23 1.9-.33 2.88-.2 1.93-.9 3.56-.84 5.57 0 .72.3 1.36.43 2.06.15 1.04.21 2 .37 3.03.1.44.16.84.26 1.22 0 .82-.4 3.4-1.36 3.45-.46.01-.9-.28-1.21-.5-1.57-1.42-.57-2.05-.76-3.68-.12-1.1-.35-2.21-.74-3.25M87.15 299.3c-.65 0-1.2.17-1.76.2-.07.13-.08.28-.09.41.49.19 1.08.46 1.59.69.72.24 1.48.51 2.21.77.5.26 1 .48 1.5.75l1.97.64c.99.4 2.02.82 3.01 1.16.54.12 1.1.26 1.63.37 1.45.45 2.84.93 4.27 1.38.57.1 1.1.24 1.67.36.9.27 1.84.43 2.76.67.83.19 1.66.4 2.44.64.9.14 1.72.12 2.63.17.4.09.76.13 1.19.2.77-.04 1.54-.07 2.35-.08.4-.12.82-.2 1.23-.3 1.24-.2 2.38-.4 3.46-.84 1.43-.59 3.67-1.66 4.44-2.94.06-.13.2-.2 0-.2l-.02-.2c-1-.1-1.9.43-2.75.65-.7.18-1.6.15-2.34.18a4.76 4.76 0 0 0-2.31-.43c-.77-.37-1.86-.32-2.76-.45-1.02-.18-2.17-.5-3.16-.77-2.87-.74-5.68-1.55-8.45-2.42-1.33-.41-2.63-1-3.99-1.38-1.28-.38-2.62-.6-3.95-.93-.97.02-4.23.22-4.48.88-.18.33.17.44.19.73l.14-.02v.11c-.93.05-1.74 0-2.62 0M77.83 291.06c-2.2.02-3.62.38-4.14 2.12-.2.73.02 1.52.58 2.1 1.27 1.25 4.3 1.26 5.55 0 .63-.65.52-1.3 1.37-1.9.74-.5 3.27-1.14 3.33-1.92.12-1.06-1.2-1.5-1.92-2.15-1.07.16-1.73.76-2.51 1.27-.33.15-.45.39-.8.5-.47.15-.99-.02-1.47-.02M129.85 295.28c.27-.12.54-.58.73-.58 0-.15.04-.12-.13-.12-.73-.65-2.03-.7-3.03-.94-.84-.4-1.73-.74-2.6-1.12-1.1-.54-1.6-1.11-2.55-1.75-.42-.24-.81-.44-1.21-.65-1.61-1.05-3.11-2.06-4.89-2.85-.42-.15-.84-.25-1.25-.4-.5-.18-.98-.35-1.45-.55-.37-.06-.73-.12-1.1-.2-.81-.2-1.6-.59-2.56-.54-.48-.28-1.08-.36-1.63-.52-1.27-.37-2.54-.86-3.87-1.18-.42-.13-.99-.13-1.42-.27-1.75.06-3.52.14-5.1.46-.4.08-.82.6-1.09.62 0 .13-.02.07.15.07v.13c1.87.4 3.92.34 5.78.77 1.68.36 3.15 1.11 4.71 1.71.66.28 1.46.44 2.13.7.63.12 1.26.25 1.9.36.74.14 1.43.4 2.18.54l1.12.1c.97.24 1.95.7 2.81 1.18.33.15.94.45.98.85h-.26c-.77-.37-1.82-.47-2.64-.66-1.02-.25-2.07-.71-3.2-.66-1.28-.31-2.55-.67-3.78-1.01a17.1 17.1 0 0 1-1.58-.62l-1.48-.7a58.1 58.1 0 0 0-3.89-.97c-1.13-.24-1.96-.47-3.31-.42l-.89-.05c-.46-.13-1.5.05-1.47.57.12.39.16.93.41 1.28.71.75 1.79.62 2.84.78l5.18.85c.69.15 1.3.47 1.98.64.49.06 1.07.16 1.58.24 2.57.63 5.2 1.41 7.69 2.32l1.48.66c1.85.73 3.86 1.33 5.78 1.86.9.23 1.68.62 2.64.68 1.38.05 3.2-.25 4.3-.61M83.94 281.43c.16.2.33.47.5.7.24.81-.65 1.61-.17 2.3.27.38.76.59 1.16.84.36.24.95.64 1.46.64 1.23-.03.58-2.59.9-3.26.28-.57 1.03-.79 1.43-1.29.9-1.17.87-2.85-.54-3.8-.42-.18-.85-.35-1.27-.54-2.1.1-3.25.17-3.92 1.8-.16.46-.28.93-.13 1.46.2.37.38.77.58 1.15M42.8 271.5c-.62.2-.54.66-.53 1.26.05.6 0 1.28.22 1.81.67 1.63 2.65 2.82 4.2 3.95.62.47 1.12.98 1.78 1.4.62.39 1.17.87 1.7 1.29.27.15.5.3.75.43l1.2.85c1.2.83 2.3 1.7 3.55 2.44.31.22.62.42.9.65 1.23.69 2.78 1.23 4.3 1.4l3.15.03 1.66.2c1.4-.07 2.84-.1 4.23-.16 1.09-.03 2.02.1 3.12.07.7-.04 1.16-.27 1.78-.28-.04-.15.03-.21-.15-.18-.8-1.27-4.96-2.17-6.55-2.52-.82-.2-1.62-.48-2.4-.7-1.24-.34-2.23-.9-3.3-1.48-.6-.27-1.15-.5-1.73-.78-.43-.3-.83-.57-1.29-.86l-1-.49c-.71-.49-1.46-.93-2.16-1.44-.25-.19-.47-.4-.72-.63-.66-.43-1.5-.84-2.08-1.34-.7-.54-1.45-1.06-2.12-1.57-.75-.6-1.36-1.24-2.1-1.88-.38-.33-.46-.82-.96-1.09a2.59 2.59 0 0 0-1.43-.33c-.31 0-1.74 0-1.72.25.2.5.57.83.9 1.24.7.97 1.4 1.78 2.28 2.7.34.33.63.65.97 1 .77.55 1.67 1.14 2.5 1.62l1.28.6c.3.2.6.43.92.66 1.52.82 2.96 1.67 4.46 2.55 1.1.69 2.44 1.12 3.43 2.02.17.11.27.38.3.63l-.9.01c-.76-.4-1.67-.5-2.43-.9-2.05-1.1-4-2.2-5.88-3.45-.67-.43-1.18-1-1.83-1.41-1.3-.9-2.85-1.73-4.05-2.86a21.94 21.94 0 0 1-2.5-2.65 8.78 8.78 0 0 1-.5-.84 5.48 5.48 0 0 0-1.25-1.22"/><path fill="#794210" d="M83.56 288.74c.44.3.78.9 1.36.94.5.05 2-.78 2.27-1.04.35-.35-.14-.88-.36-1.15-.39-.55-.94-.9-1.53-1.33-.66-.47-1.34-.96-2.06-1.4-.31-.13-.7-.3-1.07-.43-1.42-.7-2.8-1.41-4.2-2.11-.42-.22-.7-.53-1.07-.77-.3-.16-.63-.33-.88-.48-1.24-.85-2.21-1.9-3.28-2.85-.78-.69-1.53-1.27-2.37-1.94-.26-.32-.5-.64-.77-.95-.4-.38-.9-.56-1.34-.83-.6-.42-1.11-.93-1.69-1.4-1.37-1.04-2.99-1.8-4.4-2.73l-1.5-1.03-.93-.45c-1.48-.86-2.98-1.73-4.4-2.5a32.9 32.9 0 0 1-1.77-1.24c-.34-.15-.68-.35-1-.52-1.02-.62-2.05-1.3-3.03-1.96-.25 0-1.03-.04-1.01.14h-.15c.27 1 .95 1.82 1.64 2.63.6.77 1.04 1.53 1.88 2.22.74.59 1.62 1.03 2.44 1.47.44.29.84.54 1.27.8 1.54.8 3.04 1.55 4.58 2.36 1.08.6 2.06 1.32 3.13 2.03.35.22.73.46 1.09.64l2.8 2.02c.45.31.8.62 1.24.92l1.18.71 2.87 2.79c.07.13.49.79.07.8-1.02.2-5.27-3.2-6.3-3.93-.27-.13-.55-.3-.81-.47-.22-.2-.5-.4-.73-.63-.44-.27-.88-.48-1.34-.74-1.2-.78-2.25-1.68-3.46-2.45-.6-.32-1.2-.61-1.8-.9-.35-.26-.67-.47-1.03-.68-.55-.26-1.05-.55-1.63-.82-.52-.32-1.01-.67-1.52-1l-1.9-.97c-1.65-1.14-2.75-2.84-3.65-4.32-.08-.15-.8-.96-.8-1l-.23.01v.1c-.42.7-.09 1.74.1 2.47.82 3.04 2.27 4.73 5.25 6.68.65.43 1.18.98 1.78 1.45.28.16.5.3.81.46.2.21.45.4.6.62.64.3 1.25.65 1.85.94.16.16.38.3.57.46l2.45 1.69c1.18.8 2.6 1.32 3.83 2.02 1.2.67 2.51 1.53 3.79 2 .35.1.68.2 1.01.27l1.98.78 5.64 1.13c2.48.6 4.4 2.22 6.53 3.47M35.63 261.2c-.98.02-1.98.22-2.67.67a2.57 2.57 0 0 0 .78 4.62c1.12.3 2.58.11 3.44-.44.49-.33.91-.79 1.49-1.03.92-.36 2.06-.33 3.04-.72.12-.07.77-.52.48-.5-.28-.58-1.36-1.68-2.17-1.78-.62-.1-1.4.06-2.1.1a9.89 9.89 0 0 0-2.3-.91"/><path fill="#794210" d="M61.1 262.62c.2.33.4.71.63 1.03.35.42 1.85 1.48 1.87 1.93l-.21.01c-.02-.05-.02-.08-.02-.12-.52-.24-.92-.88-1.64-.77-.87.13.29 3.32.7 3.71.54.51 1.31.86 1.91 1.27 1.35.82 2.67 1.67 3.97 2.47 1.03.72 1.5 1.6 2.36 2.36 1.5 1.37 3.05 2.8 4.17 4.4.44.6 4.21 3.08 5.04 2.52.2-.17.23-.46.2-.68l-.73-1.93c-.38-1.3-.26-2.83-1.02-3.97-.23-.56-.53-1.16-.8-1.72-.71-1.33-1.88-2.5-3.16-3.54-.56-.4-1.07-.8-1.64-1.23l-.99-.53c-.8-.62-1.66-1.2-2.55-1.8-.4-.23-.88-.44-1.29-.7-1.55-1.04-2.87-2.24-4.32-3.31-.9-.73-2-1.55-2.61-2.43-1.91.3-.34 2.28.12 3.03M52.97 256.61c1.6-.98 2.1-3 .53-4.2-.65-.48-1.3-.67-1.95-.97-2.06.09-3.69 1.2-3.88 2.84-.08.58.2 1.2-.08 1.74-.85 1.6-4.3 3.27-.85 4.55 2.32.84 2.8-2.38 3.89-3.15.64-.46 1.65-.4 2.34-.8M13.74 236.97c-.13-.09-.27-.05-.28-.22-.32.24-.4.47-.38.86.13.51.61.86.81 1.3.38.76.74 1.5 1.08 2.23.32.71.5 1.58 1 2.24.76 1.23 1.48 2.47 2.2 3.7.52.8 1.05 1.64 1.58 2.44.53.92 1.01 1.86 1.63 2.73l1.4 1.37c.46.47.87.94 1.44 1.3 1.73 1.04 4.7 1.81 6.73 2.16.64.13 3.24.95 3.75.65.43-.21.25-.65 0-.9l-.75-1-5.02-3.77c-.97-.92-1.5-1.93-2.17-2.93-.61-.86-1.32-1.66-1.76-2.56-.3-.7-.64-1.4-.97-2.07-.28-.46-.52-.9-.84-1.36-.08-.3-.18-.57-.28-.86-.18-.3-.4-.64-.55-.95-.18-.54-.3-1.1-.64-1.57-.39-.57-5.06-3.25-5.76-3.2v-.1c-.47.35-.1 1.1.22 1.43a24.48 24.48 0 0 1 3.28 3.96c.3.42.34.95.56 1.41.15.19.31.38.44.58.49.73.97 1.52 1.46 2.26.26.43.33.88.5 1.3.43.8 1.04 1.62 1.64 2.32.51.55.95 1.1 1.44 1.67.5.52 1.13.86 1.38 1.53.06.13.17.28-.05.28v.12c-2.28-.42-3.5-2.54-4.44-4.04a92.4 92.4 0 0 1-2.94-5.31l-2.54-4.06a6.78 6.78 0 0 0-3.17-2.94M41.54 243.43c.7 1.02 1.49 2.01 1.84 3.22.05.12.2.39-.03.39v.12h-.48c-.42-.35-.84-.71-1.23-1.12-.72-.74-1.16-1.53-1.72-2.31l-.77-1.07c-.17-.38-.34-.77-.48-1.16-.26-.66-.72-1.2-.96-1.87-.23-.5-.27-1-.5-1.48l-.62-1.03c-.62-1.23-1.14-2.38-1.9-3.5-.7-.8-1.39-1.6-2.13-2.39-.73.09-1.15.42-1.27 1-.5 1.85 1.16 3.17 1.92 4.71l.93 1.42c.56.86 1.08 1.75 1.6 2.6.5.68.98 1.33 1.53 2 .44.63.65 1.33 1.06 2 .38.79.86 1.57 1.28 2.34.16.32.27.68.38 1a30.25 30.25 0 0 1 1.6 4.38c.13.39.3.75.44 1.12.24.28.46.56.67.79.75-.39 1.86-2.74 2.04-3.45.24-.82.66-1.56.98-2.33.04-.43.1-.83.13-1.23.05-.37.22-.73.22-1.17-.08-.49-.26-.81-.37-1.23-.08-.36-.15-.72-.25-1.1-.14-.28-.3-.56-.51-.85-.28-.7-.56-1.37-.88-2.08-.52-.75-1.03-1.5-1.52-2.25a37.24 37.24 0 0 0-2.03-3.28c-1-1.5-2.84-3.25-4.74-4.14-.19-.08-.83-.27-.83-.04h-.14c.55 1.2 1.65 2.08 2.27 3.17.88 1.62 1.34 3.41 2.13 5.06.63 1.3 1.52 2.54 2.34 3.76"/><path fill="#794210" d="M38.46 258.07c.93.97 5.05 6.33 6.92 5.73.84-.25.1-2.05-.21-2.45-.4-.29-.8-.62-1.17-.94-.91-.95-1.6-1.87-2.21-2.95-.22-.4-.5-.64-.58-1.14-.38-2.33-1.24-4.46-2.02-6.61-.15-.27-.34-.52-.52-.84-.23-.57-.48-1.2-.75-1.8-.49-.94-1.23-1.74-1.8-2.64-.26-.6-.61-1.17-.88-1.77-.29-.37-.54-.75-.82-1.13-1.06-1.67-1.75-3.54-3.08-5.1-.43-.44-.64-1.02-1.05-1.46l-.81-.66c-.63-.64-2.89-3.03-3.94-3l.01.3c.5 1.19 1.28 2.15 1.86 3.26 1.01 1.88 1.93 3.84 2.93 5.76l.87 2.06c.56.97 1.35 1.9 1.96 2.88.22.41.47.82.68 1.24.28.42.72.8.97 1.23.85 1.36 1.77 2.64 2.16 4.21.1.25.03.63-.37.65-.23-.05-.4-.12-.58-.15-2.08-.93-3.87-4.71-4.85-6.4l-1.04-1.51c-.78-1.39-1.33-2.88-1.97-4.34-.32-.76-.7-1.55-1.03-2.3l-.52-.78c-1.18-2.87-1.74-6.33-4.95-8.2-.33.1-.63.3-.78.57-.4 1.16.22 2.73.5 3.76.24 1.04.28 2.05.53 3.07.2.37.35.75.55 1.13.06.28.16.61.21.87.38.7.77 1.37 1.1 2.07l.81 2c.63 1.02 1.22 2.09 1.85 3.12.61 1.22 1.17 2.4 2.07 3.45.34.48.67.95.97 1.43.87.84 1.83 1.63 2.9 2.35.36.17.7.38 1.07.54.75.54 1.5 1.13 2.24 1.65.49.37.71.8 1.1 1.22.54.58 1.13 1.04 1.67 1.62M10.53 223.56c-.47.17-.81.45-1.16.77-1.6 1.47-1.14 3.13.87 4.15 1.73.9 3.36-.48 5.16-.41.96.04 1.66.46 2.65.45.25-.03 1 0 1-.24.18-.42.6-1.88.32-2.27-.21-.25-1.82-.5-2.23-.5-.54-.03-1.1.07-1.59-.06-.66-.19-.99-.84-1.49-1.2-.45-.36-.97-.58-1.47-.94-.71.04-1.53.02-2.06.25M33.03 220.04c-.66-.5-1.55-.69-2.27-.98-1.16.08-2.65.76-3.2 1.61-.22.38-.2.8-.6 1.15-.52.3-1.06.65-1.57.96-.47.5-.6 2.85.16 3.2.11 0 .16.03.26.04.87-.04 1.83-1.19 2.7-1.48 1.15-.35 2.48.16 3.67-.38 1.87-.79 2.38-2.95.85-4.12M4.98 201.9c-1.05 1.27-1.64 2.65-1.37 4.33.14.35.24.64.35.96.05.58.13 1.15.2 1.7.03.48.26.73.4 1.16.17.82 0 1.83.3 2.63.27.72.53 1.56 1 2.22.28.26.49.5.74.77l.58.94c.34.35.9.6 1.37.9.45.33.77.71 1.17.99.46.23.92.5 1.35.73l1.46.98c.38.19.72.42 1.08.63.6.46 3.66 2.87 4.26 2.85 0-.07 0-.12-.02-.22.77-1.79-2.38-4.41-3.4-5.75-.52-.65-.99-1.27-1.51-1.9-.28-.46-.51-.9-.8-1.37-.17-.2-.28-.4-.48-.6a16.23 16.23 0 0 1-1.4-4.98c-.12-.5-.3-1-.31-1.53-.15-1.38.2-6.45-1.91-6.2-.67.03-.86.72-1 1.14-.61 1.82-.12 4.25.5 5.97.28.65.75 1.29.97 1.96.18.72.36 1.46.57 2.18.2.66.56 1.16.64 1.86.05.21.23 1.74 0 1.74v.13h-.35v-.2c-.97-1.37-1.08-3.11-1.52-4.68a4.48 4.48 0 0 0-.33-.82c-.06-.33-.11-.64-.2-.98-.14-.33-.36-.65-.5-.96-.43-1.37-.55-3-.62-4.5l.23-1.83c.17-.56.53-1 .4-1.68-.9.2-1.36.8-1.85 1.44M27.16 203.96c.06.45.13.92.22 1.4.07.45.24.84.3 1.33.1 1.11-1.07 6.73-2.32 6.8v-.13c-.02-.04-.08-.08-.12-.13-.04-.23-.07-.44-.13-.66.03-.48.33-.76.42-1.16.08-.51.2-1.04.28-1.54.14-.65.43-1.19.43-1.88 0-1.8-.9-3.04-.9-4.82 0-.25.29-1.14.17-1.14-.32-.2-.8 0-1.03.23-.33.38-.46.81-.6 1.26-.2.55-.53 1.03-.62 1.66-.2 1.2.09 2.45.28 3.65.14 1.04 0 2.07-.06 3.08-.04.85-.5 1.75-.68 2.52-.21.85-.1 2.83.19 3.69.09.23.27.38.6.4 1.15.05 1.9-1.2 2.43-1.81.33-.25.66-.5.96-.77.44-.46.87-1.06 1.27-1.59 2.37-3.15 1.84-6.9 1.58-11.07l-.14-2.04c-.16-.4-.27-.81-.42-1.23-.1-.74-.07-1.5-.42-2.12-.56.28-.95.68-1.34 1.16-1.36 1.6-1.07 3.07-.35 4.9"/><path fill="#794210" d="M19.46 221.46c.57.95.99 2 1.3 3.05.48 1.57-.4 2.38 1.4 3.46.34.16.83.35 1.29.24.93-.24.87-2.85.72-3.65-.18-.37-.3-.74-.49-1.15-.33-.98-.57-1.9-.9-2.9-.25-.67-.67-1.22-.8-1.94-.4-1.95-.02-3.7-.17-5.64l-.18-2.9c-.18-.5-.3-.93-.45-1.4-.03-.86-.03-1.74-.08-2.59-.15-.37-.26-.77-.38-1.11-.2-.77-.13-1.47-.27-2.25l-1.18-2.82c-.4-.77-1.12-1.34-1.84-1.97-.26-.32-.53-.63-.81-.94-1.45.35-1.73 2.53-1.4 3.76.06.36.37.62.53.94l.5 1.39c.28.53.57 1.07.92 1.6.3.56.31 1.25.56 1.83.18.3.32.64.47.95.1.5.22 1 .28 1.48.14.44.34.75.39 1.26.14 1.25.13 2.47-.08 3.62-.04.34 0 .67-.23.95-.15.19-.54.32-.83.32-.07-.06-.14-.1-.25-.15-1.46-1.14-.29-5.38-.84-7.32-.26-1.02-.8-1.77-1.27-2.67-.27-.68-.58-1.37-.88-2.07-.2-.32-.3-.66-.39-1.02-.1-.88-.29-1.85-.1-2.68.1-.5.49-1.23.35-1.77-.06-.17-.28-.2-.49-.15-.42.14-.88.71-1.18 1-.6.62-1.35 1.34-1.42 2.15 0 .42 0 .8.02 1.22-.09.27-.12.53-.23.77.02.53.02 1.08.02 1.61.19.6.33 1.2.5 1.76.1 1 .17 2.04.23 3.06.12.32.25.68.4 1.03.12.6.2 1.17.41 1.72.21.3.41.62.6.94.23.58.49 1.18.69 1.8 1.5 2.57 4.06 4.63 5.56 7.18M134.46 295.19v-.38c-.92.32-1.86.61-2.77.93-1.4.52-2.99.98-4.73 1.08l-2.13-.49c-1.4-.36-2.78-.86-4.17-1.27-.48-.13-1.04-.23-1.58-.36-1.87-.62-3.77-1.25-5.68-1.93l-1.39-.3-3.56-1.06c-.97-.38-2.07-.57-3.08-.8-.68-.17-1.24-.49-2.05-.44-.93-.4-3.71-.86-4.92-.8-.42-.17-.88-.1-1.35-.15a4 4 0 0 1-1.57-.37c-1.71.08-3.4.2-5.12.26-.55.04-.9.3-1.38.32 0 .12.03.21.03.33.34.1.68.27 1.08.4l1.3.1c.4.07.82.2 1.2.33l2.45.2c.69.21 1.33.42 2.04.62.51.08 1.01.18 1.54.25 3.72 1.1 7 2.8 10.6 4.05 1.38.43 2.74 1 4.2 1.24l1.3.23 1.76.11c.6.09 1.2.24 1.77.33 1.03.13 4.11.2 4.3 1.26.1.74-3.7.65-4.56.68a3.56 3.56 0 0 0-1.35-.15 8.35 8.35 0 0 0-3.22-.48c-.73-.21-1.48-.45-2.24-.66-1.86-.52-3.61-1.2-5.39-1.85-1.21-.46-2.3-1.05-3.44-1.59-1.76-.85-3.62-1.34-5.5-1.97-1.7-.55-3.31-1.16-5.19-1.42-.74-.1-1.28-.47-1.97-.6l-2.11-.13c-.24.06-.51.13-.72.16.19.93.57.83 1.25 1.44.9.76 1.94 1.39 2.89 2.05.2.16.36.32.53.48.77.4 1.5.8 2.3 1.2.96.45 2.1.79 3.07 1.23.83.35 1.7.75 2.6 1.03.81.18 1.59.36 2.36.55l1.4.45 1.4.26c.4.12.71.28 1.07.38 2.64.77 5.16 1.53 7.93 2.13.28.09.6.2.93.34l2.1.32c.54.14 1.02.26 1.56.37 1.11.13 2.72.02 3.81-.15.55-.05.9-.28 1.31-.46.91-.33 1.8-.7 2.68-1.03 1.9-.72 3.8-1.56 5.64-2.39l1.2-2.3 1.57-1.58z"/><path fill="#BF9B5F" d="M161.3 322.6l7.56-13 19.84-.65v-2.38l.64-2.83-4.1-1.29-.64-3.9-11.54-8.45-.75-2.92-2.28-1.2-1.93-3.47-.97-2.6H164l-10.57 8.01-2.25-.2-2.22-2.23.48-4.81h-1.61v-1.75h-3.67l-.97 4.88-7.16 7.2v4.83l-2.03 2.03-1.8 3.6.96 6.61 28.47 26.22 1.18-7.25 1.3-1.31z"/><path fill="#731A1E" d="M139.12 219a5.54 5.54 0 0 1-11.08 0 5.55 5.55 0 1 1 11.08 0M154.84 219a5.55 5.55 0 1 1-11.1.03 5.55 5.55 0 0 1 11.1-.03M170.56 219a5.54 5.54 0 1 1-11.07 0 5.55 5.55 0 0 1 11.08 0M146.44 204.24a5.55 5.55 0 1 1-11.08 0c0-3.08 2.48-5.58 5.54-5.58s5.54 2.5 5.54 5.58M162.16 204.24a5.55 5.55 0 1 1-11.07 0 5.55 5.55 0 0 1 5.54-5.58c3.06 0 5.53 2.5 5.53 5.58M177.9 204.24a5.55 5.55 0 0 1-11.08 0 5.55 5.55 0 0 1 5.53-5.58c3.06 0 5.54 2.5 5.54 5.58M186.3 219a5.55 5.55 0 1 1-11.08 0 5.55 5.55 0 1 1 11.08 0"/><path fill-rule="evenodd" clip-rule="evenodd" fill="#731A1E" d="M207.28 115.64l9.01-52.58 10.53 52.58h-19.54zm-44.82-71c.27 1.1.47 1.98.6 2.71h-2.87c-.84-1.23-1.51-2.4-1.51-2.4l-1.86-18.6-2.07 18.6s-.68 1.17-1.52 2.4h-2.9c.14-.73.33-1.61.61-2.7 3.11-12.22-4.64-12.69-7.27-12.63l-.78-2.64-3.21.06-1.27-2.15s5.74-1.63 18.4-1.63c12.65 0 18.4 1.63 18.4 1.63l-1.26 2.15-3.23-.06-.77 2.64c-2.63-.06-10.61.41-7.5 12.63m-74.44 70.99l9.26-54.05 10.83 54.05H88zM217.26 57c-.05-.25-.2-.47-.39-.62-.61-1.57-3.59-8.06-10.54-7.86-4.68.16-7.63 6.06-7.63 6.06s-1.45.27-6.88-2.16-12.3-6.64-18.17-6.56a7.14 7.14 0 0 0-5.5 2.6l-1.21-1.1h-1.25c-3.11-15.28 4.24-13.95 7.41-13.86l.97-3.63 3.98.07 1.56-2.92s-7.11-2.25-22.8-2.25c-15.7 0-22.81 2.25-22.81 2.25l1.57 2.92 3.98-.07.97 3.63c3.16-.09 10.52-1.42 7.4 13.85h-1.09l-1.29 1.2a7.14 7.14 0 0 0-5.56-2.69c-5.86-.08-12.75 4.13-18.17 6.56-5.43 2.43-6.9 2.16-6.9 2.16s-2.94-5.9-7.62-6.06c-7.61-.21-10.44 7.57-10.63 8.14a.8.8 0 0 0-.24.42l-11.4 66.53a.8.8 0 0 0 .8.94h24.71a.8.8 0 0 0 .79-.96l-13.3-66.42c.66-1.17 3.87-6.41 8.8-6.5 5.55-.08 3.88 8.92 3.88 8.92s9.9-.73 20.74-4.66c10.83-3.94 9.77 8.15 9.77 8.15h6.99a7 7 0 0 0 .71.98l-.77 8.76-4.3.02v2.62h4.07l-2.72 30.75v56.28l-2.89 5.53v7.33l-4.82 8.39-.78 5.18-3.5 5.77h47.7l-3.83-5.77-.77-5.18-4.82-8.39v-7.33l-2.9-5.53V106.2l-2.54-30.74h4.27V72.7l-4.5.02-.74-9.09c.12-.16.23-.36.35-.55h7s-1.05-12.1 9.78-8.15c10.83 3.93 20.73 4.66 20.73 4.66s-1.67-9 3.88-8.91c4.4.07 7.42 4.24 8.5 5.98-.07.11-.12.24-.15.37l-11.4 66.53c-.06.32.03.63.24.88.2.24.5.38.81.38h24.73a1.07 1.07 0 0 0 1.04-1.29L217.26 57z"/><path fill="#731A1E" d="M249.01 185.8c-1.36-1.36-2.73-3.43-2.04-4.13 0 0 .44-1.35.82-2.77.35-1.06.56-2.06.63-2.98.36-1 .14-2.26-.27-3.37-.6-2.44-1.95-4.26-2.95-5.62.27 1.51.06 2.17-2.45 5.71-3.16 3.34 1.3 8.3 1.3 8.3h.01c-.16 1.58.94 4.17 1.54 4.17.68 1.38 1.37 2.07 2.05 2.76 0 0 2.05 2.06 0 6.18-4.11 6.2-10.96 2.06-11.63 2.06v-.68c0-1.38-10.95-7.56-10.95-7.56-.68-1.38-.27-21.63 1.43-25.9-5.25 13.21-22.05 20.68-22.05 20.68 4.1 2.07 13.1 12.08 15.83 21.02 4.11 4.82 8.21 3.44 9.58 3.44 1.37 0 8.2 15.81 2.73 13.06-5.47-3.44-12.31-.68-11.63 4.82h17.1c.7 0 .7-1.38 1.37-3.44 0 0 .7-4.12.7-4.82 0 0 .67-5.5.67-6.17 0 0-3.41-8.26-4.11-11.7a9.57 9.57 0 0 0 13-3.43c2.75-6.2-.68-9.62-.68-9.62M187.43 185.11c2.06.7 12.32 3.43 14.37 3.43h4.11c-4.1-2.73-7.53-6.87-9.59-9.6v-.7l-3.41 1.38s-4.1 0-6.86-2.07c2.75-.68 4.8-8.93-5.46-9.62v13.74s1.63.93 5.05 2.3l1.8 1.14zM192.9 170.68l1.38 1.37s10.27-3.44 13-6.19c-13.69-5.5-16.43-11.68-17.1-13.06 2.73-.68 5.46-9.62-4.8-10.3v14.43s8.21 10.31 9.59 11.68l-2.06 2.06z"/><path fill="#731A1E" d="M213.44 193.36c-.68-.68-13.69-4.82-10.27 14.44 0 2.07-8.2 0-9.58-.7-1.36-.68 5.48-11.67-8.9-12.37l3.42 16.5s2.74.68 5.48 2.07l2.73.68c1.37 0 8.9 1.38 10.28 1.38l10.25-14.45c.7-3.43-2.73-7.55-3.41-7.55M214.8 147.3v3.45l-2.73-.7 2.74-2.74zm-4.1 11v-.68c-.69-1.38 1.37-3.44 3.42-3.44s4.11.68 4.11 2.75c0 1.37-2.06 3.43-4.1 3.43h-.7c0 .7.7 3.43 4.11 1.37 4.1-2.04 7.74-13.52 7.74-13.52s-2.06-2.39-4.6-3.22c-1.92-.62-4.12.26-5.87.26-2.06.67-6.85 5.5-6.85 5.5v.68s-1.36 2.06-2.05 2.06c.69 2.07 2.74 3.44 4.78 4.81"/><path fill="#731A1E" d="M213.44 158.99c.68 0 1.37-.69 2.05-.69-.68-.68-4.8 1.38-6.16 1.38-1.37 0-3.42-2.06-4.78-2.75-2.07 0-4.11.69-4.11.69 2.73 0 4.1 2.06 6.84 3.43 3.41 1.38 5.47-1.37 6.16-2.06M216.59 141.12c.34.1.72-.13.83-.48a.7.7 0 0 0-.48-.87.69.69 0 0 0-.85.5.7.7 0 0 0 .5.85M222.2 141.59c.37.09.75-.13.86-.49a.7.7 0 0 0-.5-.87.68.68 0 0 0-.83.5.7.7 0 0 0 .47.86"/><path fill="#731A1E" d="M223.08 144.39a7.6 7.6 0 0 0 1.66-1.86 5.93 5.93 0 0 1-5.23-2.07c-1.62 1.49-3.34 2.05-5.26 1.62.33.65.78 1.3 1.41 1.93 1.72-.64 4.03-.7 7.42.38M216.98 162.9c-13.07 4.5-17.69 9.64-19.1 12.78-1.41 3.15 6.15 6.3 6.15 6.3 22.04-12.18 18.96-20 24.2-21.66 5.25-1.67-2.3-11.69-2.3-11.69s-4.2 12.64-8.95 14.28M83.04 207.1c1.37 0 5.46 1.38 9.58-3.43 2.74-8.94 11.72-18.95 15.83-21.02 0 0-16.8-7.46-22.05-20.67 1.7 4.26 2.1 24.51 1.43 25.89 0 0-10.96 6.18-10.96 7.56v.68c-.67 0-7.51 4.13-11.62-2.06-2.05-4.12 0-6.18 0-6.18.68-.69 1.37-1.38 2.05-2.76.59 0 1.7-2.6 1.54-4.17.03-.03 4.45-4.97 1.3-8.3-2.5-3.54-2.7-4.2-2.44-5.7-1 1.35-2.36 3.18-2.96 5.62-.4 1.1-.62 2.36-.27 3.34.07.97.3 2 .67 3.12.37 1.37.79 2.65.79 2.65.69.7-.68 2.77-2.05 4.14 0 0-3.42 3.43-.68 9.62a9.56 9.56 0 0 0 13 3.43c-.69 3.44-4.1 11.7-4.1 11.7 0 .68.67 6.17.67 6.17 0 .7.7 4.81.7 4.81.67 2.06.67 3.45 1.37 3.45h17.1c.68-5.5-6.17-8.26-11.64-4.82-5.46 2.75 1.37-13.06 2.74-13.06M126.83 177.55c-2.73 2.07-6.84 2.07-6.84 2.07l-3.42-1.38v.7c-2.05 2.73-5.48 6.87-9.58 9.6h4.1c2.05 0 12.32-2.73 14.37-3.43l1.8-1.15a44.7 44.7 0 0 0 5.05-2.3v-13.73c-10.26.68-8.21 8.94-5.48 9.62M105.62 165.86c2.73 2.75 13 6.2 13 6.2l1.37-1.39-2.06-2.06c1.38-1.37 9.58-11.68 9.58-11.68v-14.44c-10.25.69-7.52 9.62-4.78 10.3-.68 1.39-3.42 7.58-17.11 13.07"/><path fill="#731A1E" d="M119.3 207.1c-1.37.7-9.57 2.77-9.57.7 3.42-19.26-9.58-15.12-10.27-14.44-.69 0-4.1 4.12-3.42 7.55l10.26 14.45c1.37 0 8.9-1.38 10.27-1.38l2.74-.68c2.73-1.39 5.47-2.06 5.47-2.06l3.43-16.51c-14.38.7-7.54 11.7-8.9 12.38M98.1 147.3l2.73 2.75-2.74.7v-3.44zm-2.74 14.43c3.41 2.06 4.1-.67 4.1-1.36h-.69c-2.04 0-4.1-2.07-4.1-3.44 0-2.07 2.06-2.75 4.1-2.75 2.06 0 4.12 2.06 3.43 3.44v.68c2.05-1.37 4.1-2.75 4.79-4.81-.69 0-2.05-2.06-2.05-2.06v-.68s-4.8-4.83-6.85-5.5c-1.76 0-3.96-.88-5.88-.26-2.54.83-4.6 3.21-4.6 3.21s3.64 11.49 7.75 13.53"/><path fill="#731A1E" d="M97.4 158.3c.7 0 1.37.69 2.06.69.69.7 2.74 3.43 6.16 2.06 2.73-1.37 4.1-3.43 6.84-3.43 0 0-2.05-.7-4.1-.7-1.37.7-3.42 2.76-4.8 2.76-1.36 0-5.47-2.06-6.16-1.38M96.32 141.12a.7.7 0 0 0 .5-.84.7.7 0 0 0-.86-.51.7.7 0 0 0-.48.87c.1.35.49.58.84.48M90.7 141.59a.7.7 0 0 0 .47-.85c-.1-.39-.48-.62-.84-.51a.7.7 0 0 0-.48.87c.1.36.48.58.85.49"/><path fill="#731A1E" d="M89.81 144.39c3.39-1.08 5.7-1.02 7.42-.38a7.26 7.26 0 0 0 1.42-1.93c-1.93.43-3.65-.13-5.26-1.62a5.93 5.93 0 0 1-5.23 2.07 7.48 7.48 0 0 0 1.65 1.86M84.67 160.31c5.23 1.67 2.16 9.49 24.2 21.67 0 0 7.56-3.15 6.15-6.3-1.42-3.14-6.03-8.27-19.1-12.78-4.75-1.63-8.96-14.27-8.96-14.27s-7.54 10.02-2.3 11.68"/><g><path fill="#731B1E" d="M368.23 133.06c1.16.45 3.2.9 5.43.9 4.18 0 11.3-2.6 11.3-14.4 0-9.92-5.87-13.5-11.92-13.5-1.96 0-3.38.45-3.92.9-.62.54-.89 1.52-.89 3.3v22.8zm6.32-30.3c6.77 0 11.84.98 15.4 3.57 3.91 2.77 6.23 7.16 6.23 12.96 0 11.9-8.73 17.35-17.9 18.51-1.33.18-2.75.18-3.73.09l-6.31-1.52v12.96c0 7.51.8 8.05 8.53 8.67v2.86h-26.33V158c6.85-.62 7.65-1.25 7.65-8.76v-34.77c0-7.7-.8-8.23-7.12-8.76v-2.95h23.58zM409.7 130.12c0 15.82 7.57 28.51 19.4 28.51 8.99 0 16.55-8.32 16.55-25.03 0-18.15-8.1-28.6-18.95-28.6-9.26 0-17 9.2-17 25.12m47.96 1.06c0 19.22-13.7 31.03-30.34 31.03-17.18 0-29.63-12.97-29.63-30.13 0-15.55 11.03-30.67 30.7-30.67 15.84 0 29.27 11.98 29.27 29.78M476.45 148.62c0 6.52 1.95 8.58 8.18 8.58 13.62 0 21.72-10.72 21.72-26.01 0-8.86-2.94-16-8.1-20.12-3.83-3.3-8.63-4.91-14.68-4.91-3.48 0-5.43.62-6.15 1.25-.7.71-.97 2.05-.97 5v36.21zm8.45-45.86c11.21 0 19.76 2.32 25.36 7.68 4.45 4.2 7.75 10.64 7.75 19.14 0 10.81-4.27 18.68-11.04 23.86-6.59 5.1-15.75 7.42-26.78 7.42h-22.25V158c7.3-.62 8.1-1.16 8.1-8.76v-34.77c0-7.7-.8-8.23-7.3-8.76v-2.95h26.16zM565.61 146.3a162.57 162.57 0 0 1-3.1 14.56H518V158c7.74-.62 8.55-1.25 8.55-8.76v-34.77c0-7.87-.8-8.23-7.3-8.76v-2.95h41.02c.09 1.78.53 8.04.89 13.22l-3.03.45c-.8-3.4-1.87-5.99-3.29-7.68-1.42-1.7-3.82-2.33-9.35-2.33h-5.15c-3.12 0-3.38.18-3.38 3.04v19.4h6.84c7.66 0 8.55-.54 9.7-6.7h3.03v17.69h-3.03c-1.15-6.43-2.04-6.8-9.7-6.8h-6.84v15.92c0 4.3.44 6.35 2.13 7.33 1.6.9 4.71.99 8.36.99 5.43 0 8.37-.63 10.42-2.95 1.69-1.88 3.29-4.83 4.8-8.59l2.93.54z"/><path fill="#731B1E" d="M585.65 132.44c4.09 0 7.03-.72 9.07-2.42 3.11-2.6 4.45-6.17 4.45-10.81 0-9.57-5.7-13.15-11.39-13.15-2.31 0-3.65.45-4.27.9-.63.54-.8 1.52-.8 3.57v21.9h2.94zm33.19 29.23c-.72 0-1.79-.1-2.77-.1-9.6-.44-13.17-2.76-16.9-8.48-2.58-3.94-5.34-9.03-7.92-13.59-1.43-2.68-3.02-3.76-6.5-3.76h-2.04v13.5c0 7.33.8 8.14 7.65 8.77v2.85h-25.63v-2.85c6.86-.63 7.84-1.35 7.84-8.77V114.3c0-7.34-.8-8.05-7.48-8.59v-2.94h23.94c7.3 0 11.74.89 15.3 3.21 3.56 2.42 5.96 6.35 5.96 11.9 0 7.77-5.07 12.15-11.2 14.75 1.42 2.77 4.8 8.76 7.46 12.78 3.2 4.92 5.07 7.6 7.03 9.56 2.05 2.33 3.74 3.4 5.79 4.03l-.53 2.68zM656.93 105.7c-6.41.54-7.21 1.17-7.21 8.77v30.85c0 10.8-1.25 18.5-8.54 24.75a26.2 26.2 0 0 1-9.88 5.46l-1.25-3.04c4.8-2.24 7.48-5.72 8.37-11.18.8-4.74.98-10.28.98-17.25v-29.59c0-7.6-.8-8.22-7.74-8.76v-2.95h25.27v2.94z"/><path fill="#731B1E" d="M718.15 105.7c-5.08.27-7.21 1.89-7.65 5.28-.36 2.6-.63 6.08-.63 13.14v8.85c0 9.84-1.5 17.43-6.59 22.8-4.08 4.3-10.14 6.44-16.27 6.44-5.61 0-11.04-1.26-15.22-4.48-5.08-4.02-7.56-10.63-7.56-21.1V115.1c0-8.31-.8-8.75-7.57-9.38v-2.95h25.45v2.95c-6.68.54-7.47 1.07-7.47 9.38v19.76c0 13.77 5.07 21.73 15.21 21.73 11.4 0 15.84-9.03 15.84-23.96v-8.5c0-6.97-.45-10.55-.8-13.32-.54-3.21-2.5-4.74-8.63-5.1v-2.94h21.89v2.94z"/><path fill="#731B1E" d="M735.06 148.62c0 6.52 1.96 8.58 8.19 8.58 13.6 0 21.7-10.72 21.7-26.01 0-8.86-2.93-16-8.1-20.12-3.82-3.3-8.62-4.91-14.67-4.91-3.47 0-5.42.62-6.14 1.25-.72.71-.98 2.05-.98 5v36.21zm8.46-45.86c11.2 0 19.75 2.32 25.36 7.68 4.45 4.2 7.74 10.64 7.74 19.14 0 10.81-4.27 18.68-11.04 23.86-6.59 5.1-15.74 7.42-26.78 7.42h-22.25V158c7.3-.62 8.1-1.16 8.1-8.76v-34.77c0-7.7-.8-8.23-7.3-8.76v-2.95h26.17zM777.6 160.86v-2.85c6.86-.63 7.66-1.17 7.66-8.77v-34.77c0-7.6-.8-8.23-7.66-8.76v-2.95h25.54v2.94c-6.85.54-7.56 1.17-7.56 8.77v34.77c0 7.51.7 8.14 7.56 8.77v2.85H777.6zM858.5 145.75c-1.25 4.3-3.48 11.1-4.99 14.13-2.4.54-10.32 2.33-16.55 2.33-23.05 0-32.92-15.47-32.92-29.6 0-18.59 14.15-31.2 34.96-31.2 7.21 0 13.62 1.88 16.02 2.42.71 4.92 1.34 8.94 1.96 14.2l-3.11.64c-2.67-10.2-9-13.59-16.83-13.59-13.61 0-21 12.34-21 25.75 0 16.45 9.08 27.53 21.72 27.53 8.1 0 13.26-4.83 17.8-13.77l2.93 1.16z"/><path fill="#731B1E" d="M858.15 160.86v-2.85c6.85-.63 7.65-1.17 7.65-8.77v-34.77c0-7.6-.8-8.23-7.65-8.76v-2.95h25.53v2.94c-6.85.54-7.56 1.17-7.56 8.77v34.77c0 7.51.71 8.14 7.56 8.77v2.85h-25.53z"/><path fill="#731B1E" d="M907.09 116.08h-.27c-2.58 6.88-4.98 13.86-7.48 20.56h14.78l-7.03-20.56zm8 44.78v-2.85c5.34-.81 5.88-1.8 4.63-5.55-.98-2.95-2.49-7.15-4.09-11.45h-17.7c-1.17 3.32-2.4 6.71-3.48 10.29-1.5 4.83-1.07 5.9 5.43 6.7v2.86h-19.66v-2.85c5.78-.81 6.94-1.61 9.96-9.3l18.25-46.22 3.91-1.07c5.7 15.55 11.3 31.64 17.08 47.02 2.94 7.87 4.1 8.85 9.8 9.57v2.85H915.1z"/><path fill="#731B1E" d="M983.53 146.12c-.7 3.48-2.5 12.24-3.3 14.74h-42.17v-2.85c7.56-.63 8.45-1.26 8.45-8.86v-34.77c0-7.6-.8-8.14-7.74-8.68v-2.94h25.72v2.94c-6.85.54-7.65 1.08-7.65 8.68v35.13c0 4.39.35 6.08 2.13 6.88 1.6.72 4.18.9 7.3.9 4.27 0 7.38-.54 9.43-2.95 1.69-1.79 3.29-4.65 4.8-8.94l3.03.72z"/><path fill="#B29256" d="M360.93 205.2c0 3.7 1.1 4.87 4.63 4.87 7.72 0 12.3-6.08 12.3-14.74 0-5.02-1.66-9.07-4.58-11.4-2.18-1.87-4.9-2.79-8.32-2.79-1.97 0-3.08.36-3.48.7-.4.42-.56 1.18-.56 2.85v20.52zm4.78-25.98c6.36 0 11.2 1.32 14.37 4.36 2.52 2.38 4.4 6.02 4.4 10.84 0 6.13-2.43 10.59-6.26 13.52-3.73 2.89-8.93 4.2-15.18 4.2h-12.6v-1.61c4.13-.36 4.59-.66 4.59-4.97v-19.7c0-4.36-.46-4.67-4.14-4.97v-1.67h14.82zM416.47 203.89a91.5 91.5 0 0 1-1.76 8.26h-25.22v-1.62c4.4-.36 4.84-.71 4.84-4.97v-19.7c0-4.46-.45-4.67-4.13-4.97v-1.67h23.25c.05 1.01.3 4.56.5 7.5l-1.71.25c-.46-1.92-1.06-3.4-1.87-4.36-.8-.96-2.17-1.31-5.3-1.31h-2.92c-1.76 0-1.92.1-1.92 1.72v11h3.89c4.34 0 4.84-.31 5.5-3.8h1.71v10.03h-1.71c-.66-3.66-1.16-3.86-5.5-3.86h-3.89v9.02c0 2.43.26 3.6 1.22 4.15.9.5 2.67.56 4.73.56 3.08 0 4.74-.35 5.9-1.67a17.03 17.03 0 0 0 2.73-4.86l1.66.3zM446.41 203.79c-.4 1.97-1.41 6.94-1.87 8.36h-23.9v-1.62c4.29-.36 4.8-.71 4.8-5.02v-19.7c0-4.31-.46-4.62-4.4-4.92v-1.67h14.58v1.67c-3.88.3-4.34.6-4.34 4.92v19.9c0 2.48.2 3.45 1.21 3.9.9.4 2.37.51 4.14.51 2.42 0 4.18-.3 5.34-1.67.96-1.01 1.87-2.64 2.73-5.07l1.71.41zM490.2 203.89a92.45 92.45 0 0 1-1.76 8.26h-25.2v-1.62c4.38-.36 4.83-.71 4.83-4.97v-19.7c0-4.46-.45-4.67-4.14-4.97v-1.67h23.25c.05 1.01.3 4.56.5 7.5l-1.71.25c-.46-1.92-1.06-3.4-1.87-4.36-.8-.96-2.16-1.31-5.29-1.31h-2.92c-1.77 0-1.92.1-1.92 1.72v11h3.88c4.34 0 4.84-.31 5.5-3.8h1.71v10.03h-1.71c-.66-3.66-1.16-3.86-5.5-3.86h-3.88v9.02c0 2.43.25 3.6 1.21 4.15.9.5 2.67.56 4.74.56 3.07 0 4.73-.35 5.9-1.67a16.9 16.9 0 0 0 2.72-4.86l1.67.3zM512.98 187.27c-1-3.19-2.72-6.84-6.9-6.84a4.97 4.97 0 0 0-5.15 5.17c0 3.15 2.07 4.81 6.35 6.94 4.8 2.43 8.83 5.07 8.83 10.34 0 5.62-4.74 10.02-11.9 10.02-1.91 0-3.63-.3-5-.76a17.8 17.8 0 0 1-2.87-1.06c-.45-1.22-1.11-5.47-1.46-8.3l1.72-.51c.9 3.2 3.63 8.66 8.57 8.66 3.38 0 5.44-2.23 5.44-5.63 0-3.24-2.42-5.11-6.2-7.09-4.49-2.33-8.62-5.01-8.62-10.18 0-5.26 4.18-9.57 11.1-9.57 2.92 0 5.49.86 6.8 1.27.2 1.87.5 4 .9 7.19l-1.6.35zM548.27 187.58c-.6-2.54-1.22-4.1-1.97-4.97-.9-1.01-2.01-1.31-5.3-1.31h-2.72v24.26c0 4.2.45 4.61 5.05 4.97v1.62h-15.74v-1.62c4.34-.36 4.84-.76 4.84-4.97V181.3h-2.26c-4.14 0-5.1.45-5.8 1.41-.76.87-1.32 2.49-1.92 4.92h-1.7c.19-3.45.5-7.04.6-9.68h1.15c.76 1.17 1.42 1.27 2.83 1.27h20.16c1.31 0 1.92-.3 2.78-1.27h1.16c0 2.18.25 6.39.5 9.52l-1.66.1zM565.3 186.77h-.15c-1.46 3.9-2.82 7.85-4.24 11.65h8.37l-3.98-11.65zm4.54 25.38v-1.62c3.02-.46 3.33-1.01 2.62-3.15a200.7 200.7 0 0 0-2.32-6.48H560.1c-.66 1.88-1.37 3.8-1.97 5.83-.86 2.73-.6 3.34 3.08 3.8v1.62h-11.15v-1.62c3.28-.46 3.94-.92 5.65-5.27l10.33-26.2 2.22-.6c3.23 8.82 6.4 17.93 9.69 26.64 1.66 4.46 2.32 5.02 5.54 5.43v1.62h-13.66zM598.51 205.2c0 3.7 1.11 4.87 4.64 4.87 7.71 0 12.3-6.08 12.3-14.74 0-5.02-1.66-9.07-4.59-11.4-2.17-1.87-4.88-2.79-8.31-2.79-1.97 0-3.08.36-3.48.7-.4.42-.56 1.18-.56 2.85v20.52zm4.79-25.98c6.35 0 11.2 1.32 14.37 4.36 2.52 2.38 4.39 6.02 4.39 10.84 0 6.13-2.42 10.59-6.25 13.52-3.74 2.89-8.93 4.2-15.18 4.2h-12.6v-1.61c4.13-.36 4.59-.66 4.59-4.97v-19.7c0-4.36-.46-4.67-4.15-4.97v-1.67h14.83zM636.16 194.72c0 8.97 4.28 16.16 10.99 16.16 5.1 0 9.38-4.71 9.38-14.19 0-10.28-4.59-16.2-10.74-16.2-5.25 0-9.63 5.21-9.63 14.23m27.18.6c0 10.9-7.77 17.59-17.2 17.59-9.73 0-16.78-7.35-16.78-17.08 0-8.8 6.24-17.37 17.39-17.37 8.98 0 16.59 6.79 16.59 16.86M692.71 205.2c0 3.7 1.1 4.87 4.64 4.87 7.71 0 12.3-6.08 12.3-14.74 0-5.02-1.66-9.07-4.59-11.4-2.16-1.87-4.89-2.79-8.32-2.79-1.96 0-3.07.36-3.48.7-.4.42-.55 1.18-.55 2.85v20.52zm4.8-25.98c6.35 0 11.18 1.32 14.36 4.36 2.52 2.38 4.39 6.02 4.39 10.84 0 6.13-2.42 10.59-6.26 13.52-3.73 2.89-8.92 4.2-15.18 4.2h-12.6v-1.61c4.13-.36 4.6-.66 4.6-4.97v-19.7c0-4.36-.47-4.67-4.14-4.97v-1.67h14.82zM748.26 203.89a92.83 92.83 0 0 1-1.77 8.26h-25.2v-1.62c4.38-.36 4.83-.71 4.83-4.97v-19.7c0-4.46-.45-4.67-4.14-4.97v-1.67h23.25l.5 7.5-1.7.25c-.46-1.92-1.07-3.4-1.88-4.36-.8-.96-2.16-1.31-5.3-1.31h-2.91c-1.77 0-1.92.1-1.92 1.72v11h3.88c4.34 0 4.84-.31 5.5-3.8h1.71v10.03h-1.7c-.67-3.66-1.17-3.86-5.5-3.86h-3.89v9.02c0 2.43.25 3.6 1.21 4.15.91.5 2.67.56 4.74.56 3.08 0 4.74-.35 5.9-1.67a16.9 16.9 0 0 0 2.72-4.86l1.67.3zM797.1 203.58c-.7 2.44-1.97 6.28-2.82 8-1.37.31-5.85 1.33-9.38 1.33-13.06 0-18.66-8.77-18.66-16.78 0-10.53 8.02-17.67 19.81-17.67 4.1 0 7.72 1.06 9.08 1.37.4 2.78.76 5.06 1.11 8.05l-1.76.36c-1.52-5.78-5.1-7.7-9.53-7.7-7.72 0-11.9 6.99-11.9 14.59 0 9.32 5.14 15.6 12.3 15.6 4.6 0 7.52-2.73 10.09-7.8l1.66.65zM837.32 180.89c-3.99.36-4.34.61-4.34 4.92v19.8c0 4.26.4 4.56 4.34 4.92v1.62h-14.73v-1.62c4.1-.36 4.5-.66 4.5-4.92v-9.67H812.1v9.67c0 4.26.4 4.56 4.28 4.92v1.62h-14.42v-1.62c3.83-.36 4.29-.66 4.29-4.92v-19.8c0-4.31-.46-4.62-4.44-4.92v-1.67h14.43v1.67c-3.74.3-4.14.61-4.14 4.92v7.7h14.97v-7.7c0-4.31-.35-4.56-4.18-4.92v-1.67h14.42v1.67zM843.1 212.15v-1.62c3.89-.36 4.34-.66 4.34-4.97v-19.7c0-4.3-.45-4.67-4.34-4.97v-1.67h14.47v1.67c-3.88.3-4.28.66-4.28 4.96v19.71c0 4.25.4 4.61 4.28 4.97v1.62H843.1zM875.87 186.77h-.16c-1.46 3.9-2.82 7.85-4.23 11.65h8.38l-4-11.65zm4.54 25.38v-1.62c3.02-.46 3.33-1.01 2.62-3.15-.56-1.67-1.41-4.05-2.32-6.48h-10.04c-.65 1.88-1.36 3.8-1.96 5.83-.86 2.73-.6 3.34 3.07 3.8v1.62h-11.14v-1.62c3.28-.46 3.94-.92 5.65-5.27l10.34-26.2 2.22-.6c3.22 8.82 6.4 17.93 9.68 26.64 1.66 4.46 2.31 5.02 5.54 5.43v1.62h-13.66zM908.98 196.39c.65.25 1.81.5 3.07.5 2.38 0 6.4-1.46 6.4-8.14 0-5.63-3.32-7.65-6.75-7.65-1.1 0-1.91.25-2.21.5-.36.3-.5.86-.5 1.87v12.92zm3.58-17.17c3.83 0 6.7.56 8.73 2.03 2.21 1.57 3.52 4.05 3.52 7.34 0 6.74-4.93 9.83-10.13 10.48-.76.1-1.56.1-2.12.06l-3.58-.86v7.34c0 4.26.45 4.56 4.84 4.92v1.62H898.9v-1.62c3.88-.36 4.33-.71 4.33-4.97v-19.7c0-4.36-.45-4.67-4.03-4.97v-1.67h13.36zM939.68 186.77h-.15c-1.47 3.9-2.82 7.85-4.24 11.65h8.38l-3.99-11.65zm4.54 25.38v-1.62c3.02-.46 3.32-1.01 2.62-3.15-.56-1.67-1.41-4.05-2.32-6.48h-10.03c-.66 1.88-1.37 3.8-1.97 5.83-.86 2.73-.6 3.34 3.07 3.8v1.62h-11.14v-1.62c3.28-.46 3.93-.92 5.65-5.27l10.34-26.2 2.22-.6c3.22 8.82 6.4 17.93 9.68 26.64 1.66 4.46 2.31 5.02 5.54 5.43v1.62h-13.66zM980.4 187.27c-1-3.19-2.72-6.84-6.9-6.84a4.96 4.96 0 0 0-5.15 5.17c0 3.15 2.06 4.81 6.35 6.94 4.8 2.43 8.83 5.07 8.83 10.34 0 5.62-4.74 10.02-11.9 10.02-1.92 0-3.63-.3-5-.76a17.9 17.9 0 0 1-2.87-1.06c-.45-1.22-1.1-5.47-1.46-8.3l1.71-.51c.92 3.2 3.64 8.66 8.58 8.66 3.37 0 5.44-2.23 5.44-5.63 0-3.24-2.42-5.11-6.2-7.09-4.48-2.33-8.63-5.01-8.63-10.18 0-5.26 4.2-9.57 11.1-9.57 2.93 0 5.5.86 6.8 1.27.2 1.87.51 4 .92 7.19l-1.62.35z"/></g></svg>